<?xml version="1.0" standalone="no"?>
<!DOCTYPE svg PUBLIC "-//W3C//DTD SVG 20010904//EN"
 "http://www.w3.org/TR/2001/REC-SVG-20010904/DTD/svg10.dtd">
<svg version="1.0" xmlns="http://www.w3.org/2000/svg"
 width="553.000000pt" height="585.000000pt" viewBox="0 0 553.000000 585.000000"
 preserveAspectRatio="xMidYMid meet">

<g transform="translate(0.000000,585.000000) scale(0.100000,-0.100000)"
fill="#000000" stroke="none">
<path d="M2448 4865 c-187 -26 -391 -88 -576 -176 -361 -171 -655 -441 -870
-798 -34 -58 -64 -106 -66 -108 -1 -1 -92 15 -202 37 -213 42 -247 46 -290 30
-59 -23 -73 -86 -27 -123 97 -77 290 -303 337 -395 16 -31 16 -39 1 -125 -23
-127 -31 -397 -16 -527 38 -334 147 -634 329 -906 316 -472 805 -782 1373
-870 130 -21 419 -23 549 -5 437 61 840 260 1146 565 406 406 612 929 591
1504 l-5 143 164 195 c90 107 195 230 234 274 80 92 92 120 63 158 -23 30 -46
32 -143 13 -50 -10 -431 -51 -469 -51 -10 0 -32 33 -61 93 -153 314 -456 636
-769 817 -234 135 -508 228 -771 260 -115 14 -403 11 -522 -5z m602 -146 c227
-38 482 -137 680 -264 267 -171 519 -443 649 -702 l31 -62 -53 -5 c-60 -7
-449 -34 -612 -43 l-110 -5 -90 57 c-189 119 -398 206 -581 241 -291 55 -673
-49 -1009 -274 l-120 -80 -35 15 c-19 8 -165 41 -325 74 -159 33 -314 65 -342
71 l-53 11 32 56 c99 177 298 407 463 536 284 221 607 354 966 394 125 14 365
5 509 -20z m-97 -824 c169 -29 360 -107 538 -217 112 -70 137 -101 163 -203 9
-32 16 -100 17 -150 1 -49 4 -101 8 -115 7 -22 9 -19 16 24 13 81 0 223 -27
297 l-24 66 50 2 c45 1 171 9 411 26 512 36 929 76 996 97 30 8 43 8 51 0 17
-17 4 -38 -107 -168 -55 -64 -131 -154 -170 -199 -38 -45 -89 -104 -111 -131
-23 -27 -64 -76 -93 -109 -28 -33 -51 -63 -51 -67 0 -9 -141 -98 -240 -151
-248 -133 -480 -186 -613 -139 -58 21 -58 21 -78 1 -10 -10 -19 -32 -19 -48 0
-34 -13 -41 -83 -41 -29 -1 -63 -7 -77 -15 -14 -8 -47 -14 -73 -15 -26 0 -61
-7 -77 -15 -22 -12 -39 -13 -69 -6 -54 12 -122 -4 -157 -36 -26 -24 -30 -24
-68 -13 -104 32 -181 29 -260 -13 -35 -18 -62 -21 -196 -24 -85 -2 -182 -8
-215 -13 -53 -9 -65 -7 -105 12 -30 15 -65 23 -106 23 -54 1 -66 5 -97 32 -40
35 -116 57 -167 48 -37 -7 -75 8 -100 38 -12 14 -51 25 -145 42 -156 27 -297
64 -391 104 -202 84 -216 100 -524 576 -83 128 -229 300 -284 334 -65 41 -54
91 21 91 18 0 200 -34 405 -76 205 -41 465 -94 578 -116 113 -22 242 -51 287
-66 l83 -26 27 22 c206 163 514 301 763 341 87 14 220 12 313 -4z m-1977 -900
c68 -91 124 -136 227 -187 117 -58 344 -121 515 -143 44 -6 51 -9 41 -21 -6
-8 -17 -14 -24 -14 -24 0 -46 -37 -45 -76 1 -44 0 -82 -2 -135 -1 -22 6 -47
17 -64 23 -32 26 -37 51 -88 10 -21 31 -45 47 -54 l29 -15 -33 -20 c-19 -11
-64 -52 -101 -91 -60 -64 -68 -76 -68 -112 0 -26 12 -63 34 -106 30 -59 33
-72 25 -105 -15 -67 -11 -165 8 -186 30 -34 85 -13 114 44 11 21 26 38 33 38
14 0 30 -32 42 -83 4 -16 13 -31 22 -34 13 -6 27 -2 85 22 28 12 22 -56 -13
-135 -21 -49 -30 -84 -30 -123 0 -38 -6 -62 -18 -78 l-19 -22 -79 43 c-545
296 -911 863 -962 1485 -9 105 -7 243 4 335 l6 55 17 -25 c9 -14 43 -61 77
-105z m3617 -167 c-16 -521 -249 -1011 -642 -1350 -109 -95 -246 -190 -344
-239 l-57 -29 -11 27 c-10 27 -14 237 -4 252 10 17 -18 206 -41 277 -13 42
-23 78 -21 81 3 2 23 -12 47 -32 23 -19 53 -38 67 -41 39 -10 103 3 127 25 12
12 31 21 43 21 36 0 87 44 127 110 35 56 41 75 45 141 5 66 10 80 37 111 29
34 33 35 86 30 49 -4 57 -2 67 17 9 16 8 28 -2 53 -18 42 -43 64 -93 81 -46
16 -56 42 -21 51 15 3 30 18 37 36 10 25 10 34 -4 55 -21 32 -54 32 -118 0
l-50 -25 -26 28 c-15 16 -36 33 -46 39 -19 10 -18 13 12 47 18 20 32 42 32 49
-1 16 -22 42 -40 50 -8 3 26 6 76 6 174 2 412 86 644 228 36 21 68 36 71 31 3
-4 4 -63 2 -130z m-833 -118 c22 -7 21 -8 -12 -9 -21 -1 -38 4 -38 9 0 11 14
11 50 0z m20 -190 c18 -11 15 -13 -40 -29 -60 -17 -144 -102 -160 -163 -15
-54 9 -179 51 -268 15 -33 31 -75 35 -95 8 -44 30 -64 48 -44 11 11 24 78 26
132 0 4 9 7 20 7 11 0 48 14 82 31 l61 31 -6 -46 c-12 -88 -99 -216 -147 -216
-10 0 -36 -11 -56 -25 -20 -14 -42 -25 -48 -25 -6 0 -24 20 -39 44 -34 54
-114 155 -170 215 l-41 44 -15 -24 c-8 -13 -38 -46 -66 -74 -96 -95 -96 -109
2 -46 l60 39 6 -49 c7 -61 -1 -85 -58 -164 -44 -63 -71 -135 -60 -163 5 -12
11 -6 25 24 10 23 42 77 72 121 l55 80 26 -66 c38 -100 47 -171 46 -362 -1
-107 3 -185 10 -202 6 -16 11 -30 11 -33 0 -21 -296 -118 -445 -144 -144 -26
-305 -37 -305 -21 0 6 -4 53 -10 104 -5 51 -11 150 -13 220 -3 70 -7 130 -10
133 -3 3 -11 -21 -17 -53 -18 -85 -8 -272 19 -347 12 -33 21 -61 21 -64 0 -10
-246 7 -335 23 -113 20 -243 56 -362 102 l-92 35 14 29 c8 15 15 51 15 79 0
35 9 73 29 118 35 81 42 129 26 168 -10 25 -9 33 7 57 23 32 37 106 45 231 4
71 2 87 -8 84 -8 -3 -21 -24 -29 -48 -12 -36 -21 -45 -47 -52 -23 -6 -31 -13
-27 -23 5 -12 -2 -11 -37 4 -35 16 -51 32 -79 80 -19 33 -45 73 -58 88 l-22
28 6 -34 c7 -40 60 -156 77 -169 7 -5 43 -22 80 -38 92 -39 110 -56 96 -92
-13 -33 -55 -79 -90 -97 -29 -16 -39 -11 -39 17 0 23 -28 68 -55 88 -88 64
-166 166 -187 245 -12 45 -12 48 12 69 14 11 38 38 53 58 29 38 126 118 144
118 5 0 15 -11 22 -24 16 -29 51 -46 93 -46 20 0 42 -11 65 -30 28 -25 42 -30
87 -30 46 0 56 -4 79 -30 15 -16 33 -30 40 -30 7 0 18 -13 24 -30 9 -24 17
-30 42 -30 16 0 33 5 36 10 12 20 79 11 109 -15 16 -14 39 -25 51 -25 25 0 86
-19 99 -31 5 -5 4 -14 -4 -23 -7 -9 -14 -46 -16 -83 l-4 -68 18 65 c30 110 52
128 145 122 l48 -3 -8 -37 c-14 -63 -6 -157 15 -199 l20 -38 0 105 c-1 140 11
168 83 195 30 11 63 20 74 21 11 1 29 2 41 3 12 0 37 12 56 24 19 13 54 26 77
30 44 6 111 56 111 84 0 7 5 13 12 13 23 0 77 51 89 85 9 24 21 36 40 40 37 8
65 42 79 95 7 25 17 51 22 58 6 6 8 24 5 40 -10 51 13 74 99 98 90 24 123 28
144 14z m237 -37 c6 -15 -6 -30 -50 -58 -8 -5 -18 -24 -22 -41 -6 -30 -4 -32
32 -39 73 -13 126 -56 116 -94 -4 -16 -10 -17 -55 -9 l-50 9 -35 -40 c-37 -43
-157 -121 -187 -121 -37 0 -74 78 -45 96 6 3 21 1 34 -6 20 -11 28 -9 55 10
44 31 38 62 -15 74 -22 4 -46 10 -52 12 -9 2 -13 24 -13 64 0 35 -4 60 -11 60
-15 0 -39 -64 -39 -103 0 -31 -23 -78 -33 -67 -3 3 -7 38 -9 78 l-5 73 44 39
c55 49 104 62 155 42 36 -13 41 -13 85 11 56 30 91 34 100 10z m-2228 -841
c-26 -45 -58 -60 -75 -36 -11 14 -10 50 2 133 l6 34 45 -45 45 -45 -23 -41z"/>
<path d="M2695 3778 c-60 -6 -117 -13 -125 -16 -8 -4 81 -8 198 -10 222 -3
288 6 193 27 -58 12 -105 12 -266 -1z"/>
<path d="M617 3724 c-12 -12 62 -138 180 -307 132 -191 201 -270 313 -365 143
-121 235 -171 315 -172 27 0 98 -5 157 -12 74 -8 111 -9 118 -2 15 15 21 280
8 334 -31 126 -117 218 -249 266 -24 8 -120 33 -212 55 -102 23 -211 56 -275
83 -59 24 -145 60 -192 79 -91 38 -151 53 -163 41z"/>
<path d="M2907 3626 c73 -30 189 -46 328 -46 115 -1 168 -11 240 -46 l50 -25
-30 29 c-65 61 -138 82 -295 82 -103 0 -207 8 -318 25 -31 4 -27 1 25 -19z"/>
<path d="M2477 3619 c-16 -4 -34 -13 -42 -19 -7 -6 -53 -17 -101 -24 -49 -7
-105 -21 -124 -30 -34 -16 -32 -16 75 -11 96 5 117 9 169 35 32 17 70 30 83
30 13 0 22 4 19 9 -9 13 -48 18 -79 10z"/>
<path d="M4814 3564 c-208 -79 -232 -84 -459 -90 -231 -6 -295 -20 -390 -82
-71 -47 -201 -179 -210 -213 -3 -15 2 -39 15 -64 16 -31 20 -58 20 -132 0 -50
4 -94 8 -97 12 -7 385 69 462 94 36 12 121 47 190 78 114 51 132 63 201 131
42 42 101 110 131 151 31 41 90 115 132 164 77 89 91 117 59 115 -10 0 -81
-25 -159 -55z"/>
<path d="M1776 3430 c-8 -39 -14 -318 -7 -380 l7 -55 14 40 c17 50 20 357 3
395 l-11 25 -6 -25z"/>
<path d="M3216 3362 c-44 -15 -81 -33 -84 -40 -6 -18 16 -15 94 12 44 15 76
20 89 15 50 -20 63 1 15 26 -16 8 -30 15 -32 14 -2 0 -39 -13 -82 -27z"/>
<path d="M2183 3363 c-17 -2 -37 -11 -44 -19 -11 -14 -3 -15 72 -9 65 5 94 3
128 -9 47 -17 64 -14 40 8 -33 31 -101 41 -196 29z"/>
<path d="M2025 3267 c-69 -32 -115 -117 -118 -218 -1 -52 3 -71 21 -96 47 -66
254 -142 389 -143 64 0 179 44 200 77 13 19 13 31 4 69 -32 125 -120 238 -226
289 -49 24 -76 29 -150 32 -62 2 -100 -1 -120 -10z m144 -65 c11 -21 5 -57
-15 -86 -12 -17 -11 -21 6 -33 44 -31 7 -98 -40 -73 -11 6 -20 18 -20 26 0 13
-6 12 -34 -5 -63 -40 -114 -20 -102 40 19 96 172 193 205 131z"/>
<path d="M3320 3269 c-63 -8 -163 -50 -205 -87 -60 -51 -130 -171 -149 -254
-10 -44 12 -76 73 -104 75 -35 148 -40 250 -20 104 21 175 48 235 87 55 37 76
73 76 131 -1 107 -44 194 -114 227 -55 25 -88 29 -166 20z m6 -86 c5 -19 1
-39 -15 -67 -19 -35 -20 -41 -6 -48 25 -15 19 -57 -11 -70 -23 -11 -29 -10
-43 9 -17 21 -18 21 -70 3 -85 -28 -125 -3 -98 63 30 71 125 136 199 137 33 0
39 -4 44 -27z"/>
<path d="M2640 2859 c-7 -11 -9 -26 -7 -33 7 -18 117 -29 153 -16 42 16 59 52
30 63 -9 4 -12 0 -9 -13 6 -22 -26 -30 -105 -28 -51 1 -53 3 -47 25 7 29 -1
30 -15 2z"/>
<path d="M2570 2692 c-118 -6 -81 -17 43 -14 68 2 165 -1 217 -7 111 -12 130
-8 33 8 -77 12 -196 17 -293 13z"/>
<path d="M2448 2673 c6 -2 18 -2 25 0 6 3 1 5 -13 5 -14 0 -19 -2 -12 -5z"/>
<path d="M2605 2624 c-22 -8 -47 -21 -55 -30 -13 -13 -11 -13 22 1 43 17 144
20 184 5 45 -18 40 -2 -7 20 -52 23 -89 24 -144 4z"/>
<path d="M2401 1682 c-18 -34 -23 -91 -12 -144 19 -90 54 -218 58 -214 3 3 0
44 -6 93 -6 48 -12 132 -14 185 -2 97 -8 114 -26 80z"/>
</g>
</svg>
