<?xml version="1.0" standalone="no"?>
<!DOCTYPE svg PUBLIC "-//W3C//DTD SVG 20010904//EN"
 "http://www.w3.org/TR/2001/REC-SVG-20010904/DTD/svg10.dtd">
<svg version="1.0" xmlns="http://www.w3.org/2000/svg"
 width="378.000000pt" height="593.000000pt" viewBox="0 0 378.000000 593.000000"
 preserveAspectRatio="xMidYMid meet">

<g transform="translate(0.000000,593.000000) scale(0.100000,-0.100000)"
fill="#000000" stroke="none">
<path d="M1949 5673 c-1 -131 -4 -292 -8 -358 l-6 -120 -40 0 -40 0 -3 203 -2
202 -25 0 -25 0 0 -203 0 -202 -110 -17 c-280 -44 -536 -175 -740 -378 -239
-238 -368 -529 -394 -888 l-6 -82 61 -40 c101 -65 281 -128 509 -176 20 -5 9
-14 -75 -58 -196 -103 -343 -211 -488 -360 -661 -675 -715 -1737 -126 -2477
95 -120 259 -274 386 -364 118 -84 337 -196 477 -245 123 -42 305 -78 469 -91
227 -19 482 11 706 83 475 152 871 489 1098 933 206 404 257 871 143 1320
-129 511 -472 944 -944 1191 -58 30 -94 55 -86 58 8 2 60 14 115 26 172 38
325 102 409 172 l39 32 -6 92 c-12 173 -67 386 -137 524 -87 172 -244 359
-399 476 -163 122 -384 216 -587 250 -54 9 -103 20 -107 24 -4 4 -11 164 -15
356 -6 321 -8 349 -24 352 -17 3 -18 -14 -19 -235z m176 -587 c103 -23 40 -31
-242 -31 -232 0 -287 4 -272 19 3 3 47 12 99 20 110 18 319 14 415 -8z m457
-191 c0 -5 -40 -20 -89 -33 -77 -20 -151 -31 -398 -60 l-60 -7 46 -27 c25 -15
63 -46 84 -69 l38 -42 101 13 c136 17 289 52 372 86 l68 27 72 -77 c170 -182
289 -429 324 -675 19 -123 -5 -128 -29 -6 -14 67 -16 71 -41 55 -12 -7 -13
-19 -2 -80 16 -93 16 -95 -12 -108 -27 -12 -27 -10 -51 121 -6 33 -10 37 -29
31 -11 -4 -22 -7 -23 -8 -2 -1 5 -40 13 -86 15 -79 15 -85 -2 -97 -39 -28 -50
-17 -64 61 -7 41 -15 78 -19 84 -4 7 -35 2 -90 -14 -46 -13 -90 -24 -97 -24
-17 0 -17 -27 0 -108 10 -47 11 -64 2 -67 -40 -14 -294 -36 -516 -46 -201 -9
-314 -9 -484 0 -121 6 -232 14 -245 18 -24 6 -24 7 -18 99 7 108 22 94 -123
114 -47 6 -138 22 -204 36 -65 13 -122 24 -126 24 -5 0 -14 -40 -21 -90 -10
-79 -14 -90 -32 -90 -18 0 -19 5 -13 48 3 26 9 70 12 98 l6 52 -51 11 c-29 6
-53 11 -55 11 -1 0 -8 -38 -15 -85 -7 -47 -17 -87 -21 -90 -8 -5 -116 32 -136
47 -7 5 -8 29 -3 71 32 262 148 502 346 716 l59 64 65 -26 c95 -38 209 -67
339 -87 l115 -18 62 58 c34 32 71 61 83 65 34 11 12 25 -38 25 -98 1 -362 48
-446 80 l-29 11 21 15 c20 14 33 13 134 -10 190 -42 288 -51 543 -50 251 0
390 16 555 63 60 17 67 17 94 2 16 -9 29 -20 28 -26z m-1696 -922 c-10 -70
-16 -84 -32 -81 -17 4 -18 6 -9 76 5 44 10 52 27 52 18 0 20 -4 14 -47z m284
-27 c69 -13 147 -27 174 -31 l48 -7 -6 -36 c-3 -20 -6 -48 -6 -61 0 -23 -2
-24 -57 -17 -86 10 -307 56 -317 66 -4 4 -5 31 -1 59 5 38 11 51 23 51 10 0
73 -11 142 -24z m-385 -84 c201 -67 460 -117 730 -142 255 -23 851 -12 1085
21 95 13 302 58 315 69 6 4 34 15 64 24 29 9 59 20 65 24 6 5 25 14 41 20 17
5 38 13 48 17 15 6 18 4 15 -15 -9 -66 -331 -174 -638 -214 -360 -47 -866 -43
-1235 10 -301 43 -635 156 -635 215 0 13 5 19 13 16 6 -3 66 -24 132 -45z
m576 -292 c113 -22 319 -40 456 -40 l141 0 49 -62 c97 -123 258 -264 404 -354
32 -20 59 -42 59 -48 0 -6 -27 -72 -61 -147 l-61 -137 -63 29 c-127 57 -214
74 -390 74 -122 -1 -176 -5 -225 -18 -187 -51 -320 -123 -450 -243 -67 -63
-168 -192 -189 -242 -7 -18 -17 -32 -22 -32 -16 0 -269 130 -269 138 0 4 11
40 25 81 49 144 68 264 69 431 0 117 -4 172 -17 225 l-18 70 38 32 c58 49 228
148 334 193 111 48 134 58 135 59 1 1 26 -4 55 -9z m1314 -74 c109 -53 286
-165 358 -228 34 -30 39 -40 51 -113 8 -44 12 -82 11 -84 -7 -6 -147 31 -226
60 -97 35 -263 118 -354 176 -90 58 -208 153 -200 161 12 13 201 81 225 81 14
1 75 -23 135 -53z m95 -561 c47 -18 133 -45 193 -60 l107 -28 0 -66 c0 -48 5
-75 20 -98 33 -54 45 -57 248 -50 l183 7 20 -48 c66 -152 146 -461 121 -470
-33 -11 -141 -92 -212 -159 -130 -122 -254 -299 -348 -495 -26 -54 -50 -98
-55 -98 -4 0 -62 27 -128 61 -99 49 -119 63 -114 77 53 131 77 252 77 392 1
187 -48 365 -144 521 -61 99 -214 256 -300 309 -32 19 -58 39 -58 44 0 5 28
71 62 147 l61 138 91 -46 c50 -25 129 -60 176 -78z m-2150 17 c0 -119 -83
-408 -165 -574 l-49 -98 -25 17 c-175 113 -191 126 -185 147 33 112 135 318
215 437 57 85 60 88 101 92 108 9 108 9 108 -21z m2692 -122 l107 0 35 -62
c55 -99 56 -95 -11 -102 -32 -3 -111 -7 -176 -8 l-119 -3 -24 28 c-20 24 -24
39 -24 94 l0 66 53 -7 c28 -3 100 -6 159 -6z m-1236 -180 c112 -28 251 -100
326 -170 l63 -58 -113 -115 c-128 -130 -123 -110 -54 -214 18 -28 39 -50 45
-48 143 48 271 85 281 82 21 -8 41 -126 39 -237 -2 -124 -26 -226 -76 -326
-37 -74 -122 -193 -143 -201 -7 -2 -67 43 -133 102 l-120 106 -71 -47 c-59
-40 -69 -51 -64 -68 4 -12 26 -75 50 -140 24 -66 44 -125 44 -132 0 -7 -17
-18 -37 -24 -191 -53 -387 -34 -563 55 -71 36 -180 113 -180 128 0 5 46 58
103 119 56 60 103 113 105 118 5 12 -78 140 -90 140 -6 0 -78 -21 -159 -47
-82 -25 -151 -44 -154 -41 -3 2 -14 40 -26 84 -27 103 -29 261 -4 359 9 39 36
111 60 160 41 87 117 195 137 195 5 0 64 -45 130 -101 71 -59 126 -98 134 -95
27 10 124 88 124 100 0 6 -25 71 -56 144 -35 83 -53 137 -48 142 6 6 43 19 84
29 103 27 260 28 366 1z m-1213 -264 l135 -65 -28 -73 c-78 -201 -81 -459 -10
-668 70 -202 206 -379 385 -499 44 -29 79 -56 78 -60 -2 -8 -116 -265 -119
-270 -1 -1 -49 15 -106 37 -273 107 -531 147 -723 111 -59 -11 -60 -11 -83 18
-50 62 -212 419 -212 468 0 8 36 41 79 74 118 90 126 133 45 242 l-36 49 69
73 c151 159 295 387 368 580 10 26 19 47 20 47 1 0 63 -29 138 -64z m2821
-608 c-4 -51 -10 -97 -15 -102 -7 -8 -49 110 -49 139 0 14 46 55 61 55 5 0 6
-42 3 -92z m-3394 -107 c61 -83 54 -110 -53 -191 -38 -29 -70 -50 -72 -48 -4
4 -44 212 -41 215 15 16 113 82 118 80 4 -1 25 -26 48 -56z m3188 -237 c53
-42 103 -82 110 -89 26 -24 -90 -281 -201 -446 -50 -76 -52 -77 -101 -83 -28
-3 -72 -6 -98 -6 -56 0 -55 -5 -32 131 20 115 62 252 119 381 43 98 91 188
101 188 3 0 49 -34 102 -76z m-564 -34 c69 -33 126 -61 126 -63 0 -2 -13 -43
-30 -91 -80 -237 -109 -498 -75 -666 9 -47 19 -96 22 -110 4 -22 -6 -31 -84
-81 -226 -145 -469 -236 -724 -274 -59 -8 -109 -15 -111 -15 -3 0 -32 42 -64
93 -66 104 -216 262 -329 345 -56 41 -170 112 -303 189 -11 6 0 38 47 142 33
73 62 135 64 138 3 2 32 -7 65 -20 63 -26 157 -52 228 -63 l41 -6 12 -82 c12
-88 30 -122 77 -145 26 -13 51 -11 231 14 279 38 295 50 274 200 -6 44 -13 90
-17 101 -5 18 3 27 48 52 124 72 254 203 332 337 21 36 40 65 41 65 2 0 60
-27 129 -60z m-559 -511 c7 -71 -1 -101 -34 -118 -10 -6 -109 -22 -220 -38
l-201 -27 -27 20 c-30 23 -41 53 -45 131 l-3 53 101 5 c125 5 237 28 329 65
l70 28 12 -27 c6 -14 14 -56 18 -92z m-1468 -229 c155 -36 358 -122 499 -212
l62 -39 -50 -109 c-28 -61 -57 -110 -63 -110 -22 0 -184 68 -267 112 -110 59
-250 151 -297 197 -32 30 -39 45 -45 91 -4 30 -10 66 -13 79 -6 23 -5 24 43
17 27 -4 86 -16 131 -26z m868 -530 c10 -11 16 -22 13 -25 -7 -8 -128 7 -128
15 0 7 58 26 86 29 6 1 19 -8 29 -19z"/>
<path d="M1800 4749 c-56 -17 -133 -75 -168 -127 -108 -161 -31 -391 155 -458
53 -18 150 -17 209 3 67 23 154 110 177 177 69 202 -62 403 -268 412 -38 2
-86 -1 -105 -7z m166 -44 c61 -18 116 -62 152 -123 23 -41 27 -58 27 -127 0
-69 -4 -86 -27 -127 -94 -159 -293 -183 -420 -51 -72 75 -91 182 -49 278 58
131 183 190 317 150z"/>
<path d="M1835 4681 c-83 -21 -146 -81 -170 -166 -26 -89 0 -174 75 -237 72
-62 160 -74 246 -34 119 55 167 196 108 314 -30 61 -74 98 -140 118 -51 15
-72 16 -119 5z"/>
<path d="M2325 4261 c-49 -22 -93 -65 -111 -108 -22 -51 -18 -133 9 -184 87
-164 336 -135 387 46 46 165 -130 317 -285 246z m163 -32 c132 -64 133 -252 1
-319 -120 -62 -259 23 -259 159 0 138 132 220 258 160z"/>
<path d="M2340 4202 c-136 -68 -87 -282 65 -282 90 0 165 84 150 170 -17 100
-125 157 -215 112z"/>
<path d="M1735 3965 c-31 -30 -33 -82 -4 -119 16 -20 29 -26 60 -26 53 0 89
35 89 85 0 76 -92 114 -145 60z m93 -57 c5 -39 -33 -58 -60 -30 -17 16 -18 23
-8 41 17 33 64 25 68 -11z"/>
<path d="M2600 3853 c-34 -6 -47 -20 -33 -34 7 -7 25 -9 47 -5 27 5 36 12 36
26 0 20 -4 21 -50 13z"/>
<path d="M1928 3189 c-12 -6 -18 -22 -18 -45 0 -43 34 -64 75 -46 20 9 25 19
25 46 0 48 -40 70 -82 45z m55 -31 c7 -21 -4 -38 -23 -38 -10 0 -20 6 -23 13
-7 20 4 37 23 37 10 0 20 -6 23 -12z"/>
<path d="M1032 2874 c-41 -28 -22 -94 28 -94 55 0 78 52 40 90 -24 24 -38 25
-68 4z m53 -39 c0 -13 -8 -21 -22 -23 -17 -3 -23 2 -23 16 0 10 3 22 7 26 13
13 38 1 38 -19z"/>
<path d="M3046 1917 c-39 -28 -13 -97 36 -97 22 0 58 34 58 55 0 21 -36 55
-58 55 -10 0 -26 -6 -36 -13z m57 -29 c7 -21 -4 -38 -23 -38 -10 0 -20 6 -23
13 -7 20 4 37 23 37 10 0 20 -6 23 -12z"/>
<path d="M1335 2249 c-53 -63 -88 -160 -100 -275 -7 -66 9 -212 26 -229 7 -7
47 3 125 30 l116 40 -6 35 c-19 107 -18 125 8 200 15 41 29 82 32 90 4 11 -20
36 -73 78 -43 34 -83 62 -90 62 -6 0 -23 -14 -38 -31z m122 -63 l51 -38 -25
-62 c-26 -63 -34 -148 -20 -216 l7 -35 -92 -32 c-62 -21 -95 -28 -100 -20 -14
22 -19 165 -8 232 11 72 43 153 81 206 24 33 14 37 106 -35z"/>
<path d="M1817 1973 c-26 -159 -49 -307 -53 -329 l-6 -41 48 -17 c26 -9 71
-16 99 -16 l52 0 54 326 c45 277 51 327 38 335 -26 16 -83 29 -135 29 l-51 0
-46 -287z"/>
<path d="M1753 2224 c-63 -30 -127 -98 -161 -172 -37 -81 -38 -193 0 -273 27
-58 92 -139 112 -139 10 0 113 597 104 605 -2 2 -26 -8 -55 -21z"/>
<path d="M2105 2178 c-2 -7 -9 -48 -15 -92 -14 -91 -14 -90 64 -100 28 -4 61
-10 74 -13 17 -4 22 -1 22 13 0 32 -46 120 -85 163 -39 43 -53 49 -60 29z"/>
<path d="M2065 1928 c-3 -24 -7 -56 -8 -72 l-2 -30 89 -14 c73 -11 90 -11 97
0 13 20 23 119 13 128 -9 8 -126 30 -162 30 -17 0 -22 -8 -27 -42z"/>
<path d="M2315 1915 c-45 -44 -29 -116 31 -141 91 -38 165 78 92 146 -32 29
-92 27 -123 -5z m99 -16 c39 -31 34 -74 -12 -98 -18 -9 -28 -9 -50 1 -43 21
-43 85 0 106 31 15 32 15 62 -9z"/>
<path d="M2045 1798 c-2 -7 -6 -31 -7 -53 l-3 -40 63 -8 c34 -5 68 -7 75 -4 7
2 22 23 35 45 l22 40 -72 12 c-40 6 -81 14 -91 16 -9 3 -19 -1 -22 -8z"/>
<path d="M2017 1639 c-3 -24 -4 -46 -1 -48 5 -6 74 26 104 49 14 10 23 21 20
23 -3 3 -30 8 -61 12 l-56 7 -6 -43z"/>
<path d="M650 2011 c-17 -32 -11 -60 15 -77 52 -34 111 31 70 76 -23 26 -71
26 -85 1z m65 -36 c0 -30 -39 -27 -43 3 -3 20 0 23 20 20 15 -2 23 -10 23 -23z"/>
<path d="M932 1149 c-42 -16 -37 -90 7 -102 31 -8 66 15 69 46 6 46 -30 73
-76 56z m48 -49 c0 -24 -25 -33 -40 -14 -10 11 -10 17 0 28 15 19 40 10 40
-14z"/>
<path d="M2682 1064 c-24 -17 -30 -62 -10 -82 37 -37 113 12 88 57 -9 17 -39
41 -52 41 -2 0 -14 -7 -26 -16z m48 -30 c11 -12 10 -18 -3 -32 -16 -15 -18
-15 -34 0 -13 14 -14 20 -3 32 7 9 16 16 20 16 4 0 13 -7 20 -16z"/>
</g>
</svg>
