<?xml version="1.0" encoding="utf-8"?>
<!-- Svg Vector Icons : http://www.onlinewebfonts.com/icon -->
<!DOCTYPE svg PUBLIC "-//W3C//DTD SVG 1.1//EN" "http://www.w3.org/Graphics/SVG/1.1/DTD/svg11.dtd">
<svg version="1.1" xmlns="http://www.w3.org/2000/svg" xmlns:xlink="http://www.w3.org/1999/xlink" x="0px" y="0px" viewBox="0 0 1000 1000" enable-background="new 0 0 1000 1000" xml:space="preserve">
<metadata> Svg Vector Icons : http://www.onlinewebfonts.com/icon </metadata>
<g><g transform="translate(0.000000,512.000000) scale(0.100000,-0.100000)"><path d="M1148.7,4964.5l-63.2-55.5l-5.7-1906.5l-7.7-1906.5H957.3c-101.4,0-120.6-5.7-170.4-55.5L731.4,985V-345.4c0-1259.5,1.9-1336.1,38.3-1475.8c80.4-315.8,273.7-570.4,564.7-748.4c340.7-206.7,509.2-327.3,1732.3-1225.1c700.6-514.9,1303.5-947.5,1339.9-960.9c93.8-32.5,1093-32.5,1186.8,0c36.4,13.4,654.6,457.5,1372.5,983.9c738.9,543.6,1420.3,1029.8,1567.7,1119.8c423,254.6,604.9,472.8,696.8,830.7c36.4,139.7,38.3,216.3,38.3,1475.8V985l-55.5,55.5l-55.5,55.5h-382.8h-380.9l-13.4,302.4c-44,1029.8-375.2,1785.9-1100.6,2513.3c-302.4,300.5-530.2,463.2-865.2,612.5c-668,298.6-1286.3,382.8-1979.2,264.2c-1104.5-185.7-2084.5-964.7-2538.2-2015.6c-179.9-417.3-256.5-779.1-277.6-1326.5l-13.4-350.3h-82.3h-84.2v1512.2v1512.2h522.6c298.6,0,551.3,9.6,591.5,19.1c122.5,34.5,130.2,61.3,130.2,436.4V4909l-55.5,55.5l-55.5,55.5h-681.4H1210L1148.7,4964.5z M2339.3,4570.2V4484h-449.8h-449.8v86.1v86.1h449.8h449.8V4570.2z M5576.2,4428.5c248.8-49.8,484.3-132.1,746.5-256.5c266.1-126.3,449.8-256.5,671.9-469c606.8-583.8,960.9-1315,1020.2-2101.7l13.4-174.2l-369.4-49.8c-982-135.9-1584.9-174.2-2658.8-174.2c-1073.8,0-1676.8,38.3-2658.8,174.2l-371.3,49.8l13.4,208.7c90,1500.7,1181,2649.2,2691.3,2836.8C4839.2,4491.7,5398.1,4466.8,5576.2,4428.5z M2157.5,923.7c47.9,0,82.3,15.3,116.8,47.9l45.9,45.9l210.6-26.8c116.8-15.3,229.7-38.3,252.7-49.8c23-13.4,74.7-17.2,122.5-9.6c45.9,5.7,120.6,5.7,166.5,0l82.3-11.5l-53.6-53.6c-112.9-114.8-40.2-296.7,118.7-296.7c65.1,0,90,11.5,126.3,53.6c61.3,70.8,61.3,176.1,3.8,239.3l-44,45.9l181.8-13.4c285.2-19.1,310.1-23,287.1-67c-47.9-88.1-13.4-193.3,78.5-241.2c114.9-59.3,250.8,23,250.8,153.1c0,36.4-5.8,74.7-13.4,86.1c-7.7,15.3,51.7,21.1,191.4,21.1H4487l-13.4-59.3c-17.2-78.5,21.1-166.5,90-201c116.8-61.3,254.6,28.7,254.6,166.5V828H5000h181.8v-74.7c0-137.8,137.8-227.8,254.6-166.5c68.9,34.5,107.2,122.5,90,201l-13.4,59.3h202.9h202.9l-17.2-44c-59.3-153.1,118.7-294.8,260.3-206.7c70.8,44,101.4,147.4,67,222c-19.1,42.1-17.2,47.9,40.2,55.5c34.5,5.7,143.6,15.3,243.1,21.1l181.8,13.4l-42.1-45.9c-130.2-137.8,36.4-361.8,202.9-275.6c112.9,59.3,134,189.5,44,279.5l-53.6,53.6l88,9.6c47.9,5.7,122.5,5.7,166.5,0c42.1-5.7,95.7,0,116.8,11.5c23,11.5,135.9,34.5,252.7,49.8l210.6,26.8l45.9-45.9c68.9-68.9,168.4-65.1,243.1,9.6l57.4,57.4l-5.7-90l-5.7-88l-172.3-72.7L7670.2,717l-5.7,55.5c-7.7,70.8-103.4,151.2-179.9,151.2c-128.3,0-214.4-174.2-137.8-283.3c28.7-42.1,26.8-44-34.4-70.8c-40.2-15.3-95.7-21-145.5-15.3c-90,11.5-168.4-26.8-193.4-93.8c-13.4-36.4-70.8-65.1-380.9-189.5c-42.1-17.2-42.1-15.3-13.4,42.1C6638.5,426,6552.4,560,6420.3,560c-84.2,0-176.1-88.1-176.1-168.4c0-70.8,82.3-176.1,139.7-178c28.7,0,9.6-17.2-61.3-49.8c-90-42.1-105.3-45.9-118.7-19.1c-24.9,44-135.9,74.7-191.4,53.6c-67-24.9-112.9-84.2-118.7-151.2c-3.8-53.6-15.3-65.1-107.2-103.4c-132.1-53.6-306.3-220.1-367.5-354.1c-34.5-76.6-55.5-101.4-86.1-101.4c-59.4,0-135.9-68.9-151.2-132.1c-17.2-78.5,34.5-170.4,116.8-204.8l65.1-26.8v-162.7V-1201l-65.1-26.8c-80.4-34.5-134-126.3-116.8-202.9c13.4-61.3,53.6-103.4,130.2-132.1c51.7-19.1,51.7-22.9,51.7-189.5v-168.4l-67-24.9c-164.6-59.3-149.3-283.3,24.9-336.9c40.2-11.5,42.1-23,42.1-183.8c0-143.6-5.7-170.4-30.6-170.4c-44,0-160.8-122.5-160.8-170.4c0-74.6,53.6-151.2,124.4-176.1l68.9-24.9l-5.7-174.2c-5.7-158.9-9.6-172.3-45.9-178c-55.5-7.7-118.7-80.4-132.1-147.4c-15.3-80.4,49.8-179.9,124.4-195.2l57.4-9.6v-170.4v-170.4l-61.3-24.9c-88-36.4-120.6-82.3-120.6-170.4c0-59.3,13.4-86.1,53.6-122.5l53.6-45.9h-289h-289l53.6,45.9c40.2,36.4,53.6,63.2,53.6,122.5c0,88.1-32.5,134-118.7,170.4l-63.2,24.9v170.4v170.4l57.4,9.6c74.6,15.3,139.7,114.8,124.4,195.2c-13.4,67-76.6,139.7-132.1,147.4c-36.4,5.7-40.2,19.1-45.9,178l-5.7,174.2l68.9,24.9c164.6,59.3,149.3,283.3-23,336.9c-42.1,11.5-44,23-44,181.8c0,158.9,1.9,170.4,44,181.8c172.3,53.6,187.6,277.6,23,336.9l-67,24.9v168.4c0,166.5,0,170.3,51.7,189.5c76.6,28.7,116.8,70.8,130.2,132.1c17.2,76.6-36.4,168.4-116.8,202.9l-65.1,26.8v162.7v162.7l65.1,26.8c82.3,34.4,134,126.3,116.8,204.8c-15.3,63.2-91.9,132.1-151.2,132.1c-30.6,0-51.7,24.9-86.1,101.4c-61.3,134-235.4,300.5-369.4,356C4115.7-16.1,4106.1-6.6,4104.2,47c-3.8,135.9-170.4,202.9-287.1,116.8l-55.5-40.2l-93.8,44c-51.7,24.9-78.5,45.9-59.3,45.9c19.1,1.9,61.3,26.8,91.9,57.4c74.7,76.6,74.7,157,0,233.5c-141.6,139.7-371.3-15.3-281.4-191.4c30.6-57.4,30.6-59.3-11.5-42.1c-310.1,124.4-367.5,153.1-380.9,189.5c-24.9,67-103.4,105.3-193.3,93.8c-49.8-5.7-105.3,0-145.5,15.3c-61.3,26.8-63.2,28.7-34.5,70.8c76.6,109.1-9.6,283.3-137.8,283.3c-76.6,0-172.3-80.4-179.9-151.2l-5.7-55.5l-172.3,70.8l-172.3,72.7l-5.7,88l-5.8,90l57.4-57.4C2073.3,939,2105.8,923.7,2157.5,923.7z M1611.9-779.9c0-842.2-5.7-1531.3-11.5-1531.3c-5.7,0-68.9,38.3-139.7,84.2c-145.5,93.8-248.8,208.6-312,348.4l-44,93.8L1099-519.6l-5.8,1263.3l260.3,3.8l258.4,3.8V-779.9z M8901-515.7l-5.7-1269.1l-44-93.8c-63.2-139.7-166.5-254.6-312-348.4c-70.8-46-134-84.2-139.7-84.2c-5.7,0-11.5,689.1-11.5,1531.3V751.4h258.4h260.3L8901-515.7z M3248.5-46.8c432.6-179.9,807.8-331.1,834.6-336.9c72.7-19.1,153.1-88.1,181.8-158.9c23-53.6,26.8-356,23-1753.4c-1.9-930.3-5.7-1646.2-9.6-1594.5c-68.9,1045.1-246.9,1858.6-560.8,2559.2C3436.1-701.4,3015-157.8,2546,188.7c-67,47.9-124.4,91.9-130.2,99.5C2402.5,301.6,2381.4,311.2,3248.5-46.8z M7574.5,276.7c-11.5-7.7-86.1-65.1-166.5-126.3c-178-132.1-423-373.3-572.3-560.8C6181-1233.5,5813.5-2387.8,5721.6-3900c-3.8-57.4-5.7,671.8-5.7,1621.3c1.9,1717,1.9,1726.6,42.1,1780.2c51.7,68.9,34.5,61.3,983.9,451.7C7528.6,276.7,7612.8,309.3,7574.5,276.7z M2216.8-18.1c250.8-164.6,606.8-511.1,788.6-771.4c470.9-668,769.5-1556.2,872.9-2593.7c51.7-536,55.5-599.1,24.9-580c-15.3,7.7-455.6,329.2-978.1,714l-949.4,696.8v1336.1c0,735,7.7,1336.1,15.3,1336.1C2000.5,119.8,2102,58.5,2216.8-18.1z M8024.4-1216.3v-1336.1L7075-3249.1c-522.6-384.7-962.8-706.3-976.2-714c-30.6-17.2-26.8,82.3,22.9,580C6230.8-2301.6,6539-1407.7,7029-741.6c183.8,250.8,511.1,562.8,754.2,723.6c114.9,76.6,216.3,137.8,225.9,137.8C8016.7,119.8,8024.4-481.3,8024.4-1216.3z"/><path d="M5809.7,3220.7c-44-17.2-101.4-109.1-101.4-162.7c0-103.4,118.7-195.2,216.3-170.4c61.3,13.4,147.4,111,147.4,162.7C6071.9,3182.4,5934.1,3270.5,5809.7,3220.7z"/><path d="M6508.3,3211.1c-61.3-34.4-99.5-137.8-74.6-202.9c55.5-149.3,250.7-168.4,319.6-30.6c36.4,67,23,166.5-28.7,212.5C6674.9,3236,6569.6,3245.6,6508.3,3211.1z"/><path d="M6121.7,2826.4c-111-111-32.5-294.8,126.3-294.8c103.3,0,168.4,67,168.4,172.3C6416.5,2864.7,6234.6,2939.3,6121.7,2826.4z"/><path d="M6829.9,2816.8c-28.7-32.5-49.8-82.3-49.8-112.9c0-30.6,21-80.4,49.8-112.9c40.2-47.9,63.2-59.3,124.4-59.3c105.3,0,170.4,65.1,170.4,172.3c0,107.2-65.1,172.3-170.4,172.3C6893.1,2876.2,6870.1,2864.7,6829.9,2816.8z"/><path d="M5811.6,2504.8c-107.2-47.9-132.1-193.3-45.9-279.5c82.3-82.3,225.9-61.3,277.6,40.2c42.1,78.5,34.4,124.4-23,187.6C5955.2,2523.9,5890.1,2539.3,5811.6,2504.8z"/><path d="M6550.5,2518.2c-103.4-38.3-155-158.9-107.2-250.7c51.7-101.5,212.5-126.3,285.2-45.9C6847.2,2353.6,6713.2,2577.5,6550.5,2518.2z"/><path d="M4167.3,512.2c-36.4-34.5-47.9-67-47.9-124.4c0-105.3,65.1-172.3,166.5-172.3c160.8,1.9,231.6,162.7,128.2,285.2C4349.2,579.2,4238.2,584.9,4167.3,512.2z"/><path d="M4877.5,510.3c-112.9-112.9-38.3-294.8,122.5-294.8c105.3,0,172.3,65.1,172.3,168.4c0,101.5-72.7,176.1-172.3,176.1C4948.3,560,4913.9,546.6,4877.5,510.3z"/><path d="M5585.7,500.7c-103.3-122.5-32.5-283.3,128.3-285.2c101.4,0,166.5,67,166.5,172.3c0,107.2-65.1,172.3-170.4,172.3C5648.9,560,5625.9,548.5,5585.7,500.7z"/><path d="M4567.4,188.7C4464,142.7,4437.2-6.6,4515.7-94.6c72.7-80.4,233.5-55.5,285.2,45.9C4875.6,96.8,4720.5,255.7,4567.4,188.7z"/><path d="M5306.3,202.1c-15.3-5.7-47.8-28.7-70.8-49.8c-132.1-118.7-11.5-329.2,166.5-291c63.2,13.4,134,103.4,134,168.4c0,65.1-55.5,143.6-116.7,164.6C5352.2,217.4,5348.4,217.4,5306.3,202.1z"/><path d="M4887.1-198c-101.5-84.2-76.6-235.4,47.9-287.1c55.5-23,74.6-23,130.2,0c122.5,49.8,145.5,185.7,51.7,281.4C5045.9-132.9,4965.6-131,4887.1-198z"/><path d="M4931.1-875.6c-105.3-44-135.9-189.5-57.4-281.4c101.5-116.7,298.6-40.2,298.6,118.7C5172.3-917.7,5040.2-827.7,4931.1-875.6z"/><path d="M4929.2-1593.4c-118.7-51.7-141.6-202.9-42.1-285.2c78.5-67,158.9-65.1,229.7,5.8c93.8,95.7,70.8,231.6-49.8,281.4C4990.4-1560.9,5005.7-1559,4929.2-1593.4z"/><path d="M4875.6-2339.9c-109.1-107.2-28.7-296.7,124.4-296.7c153.1,0,229.7,181.9,124.4,294.8C5061.2-2272.9,4942.6-2271,4875.6-2339.9z"/><path d="M4887.1-3050.1c-101.5-84.2-76.6-235.5,47.9-287.1c181.8-76.6,329.2,160.8,178,287.1c-32.5,28.7-82.3,49.8-112.9,49.8C4969.4-3000.3,4919.6-3021.4,4887.1-3050.1z"/><path d="M4883.2-3764.1c-114.8-116.8-44-298.6,116.8-298.6c101.4,0,172.3,72.7,172.3,174.2c0,90-86.1,180-172.3,180C4957.9-3708.5,4921.5-3725.8,4883.2-3764.1z"/></g></g>
</svg>