<?xml version="1.0" standalone="no"?>
<!DOCTYPE svg PUBLIC "-//W3C//DTD SVG 20010904//EN"
 "http://www.w3.org/TR/2001/REC-SVG-20010904/DTD/svg10.dtd">
<svg version="1.0" xmlns="http://www.w3.org/2000/svg"
 width="564.000000pt" height="606.000000pt" viewBox="0 0 564.000000 606.000000"
 preserveAspectRatio="xMidYMid meet">

<g transform="translate(0.000000,606.000000) scale(0.100000,-0.100000)"
fill="#000000" stroke="none">
<path d="M2585 5783 c-61 -16 -329 -132 -451 -196 -224 -118 -669 -422 -794
-541 -36 -35 -84 -77 -108 -95 -50 -38 -73 -80 -96 -171 -9 -36 -48 -132 -87
-214 -80 -169 -124 -277 -208 -509 -32 -89 -86 -232 -118 -317 -78 -200 -80
-213 -50 -288 96 -236 174 -644 153 -803 -13 -95 -60 -158 -131 -173 -20 -4
-52 -31 -96 -79 -71 -78 -89 -106 -99 -151 -6 -30 -92 -105 -219 -192 l-53
-37 6 -45 c8 -56 20 -71 113 -129 40 -26 73 -50 73 -54 0 -18 192 -214 436
-445 148 -140 306 -296 353 -346 46 -51 130 -140 186 -198 120 -124 198 -226
190 -249 -6 -21 9 -39 63 -76 56 -37 66 -57 59 -121 -5 -44 -3 -54 11 -58 73
-21 275 -28 937 -32 407 -3 805 -6 885 -7 290 -3 431 3 446 21 170 201 1048
1431 1148 1610 17 30 55 81 84 113 28 32 52 67 52 78 0 11 -19 34 -44 53 -24
18 -105 88 -181 155 -176 156 -219 179 -389 208 -150 26 -186 38 -186 61 0 16
110 510 205 919 31 132 74 337 95 455 109 601 145 796 210 1140 101 537 105
563 90 630 -21 96 -63 115 -126 57 -33 -30 -39 -46 -94 -248 -33 -119 -69
-266 -80 -325 -12 -60 -41 -192 -65 -294 -66 -280 -177 -779 -251 -1125 -58
-274 -112 -513 -174 -770 -11 -44 -29 -123 -40 -175 -33 -148 -50 -200 -65
-200 -23 0 -120 105 -150 163 l-29 54 23 64 c31 86 84 182 131 238 54 64 79
127 91 227 14 125 25 167 73 279 66 151 70 170 69 280 -1 123 -16 171 -120
379 -42 83 -93 196 -113 251 -21 55 -67 163 -102 240 -88 190 -117 265 -125
322 -3 26 -10 56 -15 65 -10 21 -63 49 -138 73 -166 53 -439 218 -578 350 -95
89 -173 130 -318 164 -87 20 -235 27 -289 14z m277 -104 c71 -22 118 -45 173
-82 41 -29 114 -79 162 -112 106 -72 242 -168 302 -213 24 -18 72 -46 105 -63
80 -38 147 -80 157 -99 14 -24 117 -525 134 -650 28 -209 45 -304 74 -420 32
-128 45 -202 61 -365 18 -170 40 -296 56 -319 17 -25 17 -61 1 -100 l-13 -29
-26 32 c-15 17 -52 72 -83 123 -144 231 -182 343 -171 496 15 214 18 332 9
332 -14 0 -28 -55 -54 -202 -13 -71 -26 -128 -30 -128 -10 0 -15 30 -39 220
-49 386 -69 471 -145 605 -25 44 -84 123 -133 176 -90 99 -119 148 -182 307
-25 62 -48 100 -93 150 -118 133 -312 309 -377 342 -67 34 -110 27 -262 -44
-132 -61 -269 -118 -274 -113 -11 10 138 99 221 133 176 71 258 75 427 23z
m2168 -22 c0 -76 -138 -769 -420 -2117 -127 -609 -219 -1052 -235 -1140 -8
-41 -25 -129 -40 -195 -14 -66 -41 -196 -61 -290 -20 -93 -62 -285 -95 -425
-63 -269 -121 -530 -188 -845 -22 -105 -48 -213 -56 -242 -14 -46 -18 -51 -51
-57 -43 -9 -119 2 -156 21 -33 16 -35 36 -13 110 9 29 33 136 56 240 71 335
158 650 294 1073 58 180 182 597 230 773 78 290 102 391 189 807 47 223 119
563 160 755 41 193 107 505 146 695 148 718 160 773 196 843 20 39 44 35 44
-6z m-3020 -314 c20 -21 55 -50 78 -65 61 -40 57 -65 -33 -196 -23 -32 -53
-94 -69 -138 -15 -43 -32 -90 -37 -103 -17 -41 -30 -9 -30 74 0 75 2 84 45
167 64 122 60 180 -10 143 -16 -8 -38 -15 -49 -15 -11 0 -63 -13 -115 -29
-134 -40 -136 -43 -132 -226 2 -110 7 -158 23 -209 18 -61 19 -86 1 -86 -4 0
-13 19 -20 43 -19 60 -53 137 -61 137 -4 0 -12 -48 -18 -107 -7 -60 -17 -124
-23 -144 -13 -45 -52 -104 -68 -104 -20 0 -100 85 -122 130 -24 49 -26 122 -5
152 9 12 33 32 53 43 34 19 45 37 90 135 28 62 54 124 57 138 4 14 17 35 30
47 30 28 357 249 369 250 5 0 26 -17 46 -37z m-80 -207 c0 -3 -30 -44 -66 -92
l-66 -88 6 -63 c7 -70 -1 -78 -38 -38 -67 72 -29 184 86 249 60 34 78 41 78
32z m730 -54 c17 -17 30 -44 35 -70 9 -54 22 -62 30 -18 6 29 12 35 38 39 35
5 104 -20 126 -46 14 -18 12 -43 -13 -167 -9 -41 -20 -95 -25 -120 -5 -25 -15
-61 -22 -80 -8 -19 -14 -36 -14 -36 0 -1 -10 -5 -22 -8 -21 -7 -22 -4 -26 76
-3 51 -13 107 -27 145 -39 107 -56 50 -20 -66 23 -74 19 -131 -10 -131 -10 0
-53 20 -96 45 -46 26 -92 45 -110 45 -17 0 -75 -22 -130 -50 -54 -27 -102 -50
-106 -50 -13 0 -8 34 6 53 8 10 41 29 73 42 32 13 59 30 61 38 2 8 -8 27 -22
42 -14 15 -30 43 -37 63 -7 21 -17 40 -22 44 -11 7 -10 10 29 80 21 38 97 98
124 98 13 0 42 -11 66 -25 34 -20 43 -32 49 -62 3 -21 12 -49 20 -63 l13 -25
7 26 c10 39 -22 140 -52 165 -31 26 -23 44 18 44 20 0 40 -10 59 -28z m-1210
-68 c0 -9 -38 -54 -84 -99 -75 -75 -87 -91 -116 -166 -18 -46 -52 -127 -77
-179 -85 -180 -283 -709 -342 -912 l-31 -107 20 -73 c20 -73 28 -218 12 -218
-5 0 -25 67 -45 149 -35 144 -36 152 -22 203 15 56 155 424 225 593 23 55 89
217 147 360 57 143 113 274 125 293 18 29 170 172 183 172 3 0 5 -7 5 -16z
m2513 -186 c30 -62 78 -169 105 -238 60 -149 211 -484 237 -523 27 -42 15
-163 -30 -307 -30 -94 -75 -294 -75 -332 0 -5 -4 -6 -10 -3 -13 8 -50 128 -60
199 -9 57 -8 61 19 92 41 46 69 128 77 226 l7 85 -41 55 c-51 66 -77 126 -132
293 -23 72 -65 191 -92 265 -41 111 -78 249 -78 291 0 30 24 -5 73 -103z
m-2505 70 c-3 -7 -15 -15 -28 -16 -21 -3 -22 -2 -11 12 16 19 44 21 39 4z
m1543 -48 c27 -15 24 -57 -8 -137 -37 -91 -40 -204 -5 -247 12 -16 22 -43 22
-61 0 -39 26 -127 52 -180 28 -54 87 -126 174 -212 72 -70 135 -157 188 -260
34 -65 65 -244 70 -401 1 -62 6 -115 9 -119 15 -14 6 -23 -18 -17 -31 8 -33
-9 -5 -51 28 -43 26 -64 -3 -37 -13 12 -26 22 -30 22 -12 0 4 -50 29 -94 28
-48 32 -81 9 -72 -11 4 -15 -2 -15 -21 0 -21 -3 -24 -12 -15 -19 19 -28 14
-28 -15 0 -15 -7 -52 -16 -84 -14 -49 -19 -56 -37 -51 -14 4 -18 2 -13 -7 23
-37 -47 -171 -89 -171 -18 0 -26 -8 -35 -36 -10 -30 -16 -35 -38 -32 -23 3
-27 7 -24 31 3 34 -14 36 -22 2 -7 -28 -40 -65 -56 -65 -7 0 -8 13 -5 34 7 34
-7 76 -25 76 -6 0 -10 -13 -10 -30 0 -20 -11 -40 -34 -64 -38 -37 -46 -37 -46
6 0 29 -14 38 -23 16 -4 -10 -7 -10 -15 0 -5 7 -16 10 -24 7 -9 -4 -18 0 -21
9 -4 9 -13 16 -21 16 -8 0 -20 8 -25 18 -9 15 -10 14 -11 -9 0 -22 -4 -26 -30
-26 -31 0 -47 23 -41 60 3 22 -25 23 -33 1 -6 -15 -8 -15 -27 2 -19 17 -20 17
-26 -4 -3 -12 -12 -22 -19 -22 -11 0 -13 9 -8 41 l7 41 -28 -18 -28 -18 5 24
c3 14 2 36 -2 50 -7 24 -8 23 -25 -18 -21 -50 -39 -50 -43 0 -3 30 -6 35 -23
31 -24 -7 -24 4 -1 30 10 12 13 21 6 24 -7 2 -8 22 -3 60 9 64 6 72 -15 54
-11 -9 -20 -10 -35 -2 -24 13 -48 6 -84 -28 -27 -24 -29 -25 -41 -9 -7 10 -16
15 -19 11 -4 -3 -7 0 -7 8 0 9 18 25 39 37 49 28 53 39 27 78 -19 26 -25 29
-50 23 -26 -7 -27 -6 -22 16 4 14 1 25 -7 28 -9 3 -9 8 -1 17 9 9 24 9 68 -1
31 -8 56 -17 56 -21 0 -5 9 -8 20 -8 12 0 22 -9 26 -24 l6 -25 40 39 c59 56
76 57 97 7 l18 -41 17 27 c10 15 27 27 37 27 14 0 18 -8 17 -41 0 -32 5 -47
26 -66 14 -13 26 -29 26 -36 0 -7 9 -18 20 -25 19 -11 21 -10 26 17 6 28 10
30 58 33 48 3 51 5 54 31 2 18 11 31 26 36 12 5 28 16 35 25 10 12 23 14 51
10 23 -4 40 -2 44 5 4 6 18 8 31 5 16 -4 30 1 47 18 l23 23 -25 3 c-14 2 -29
8 -35 13 -12 12 -28 12 -20 -1 10 -16 -7 -12 -27 7 -12 10 -22 13 -26 8 -10
-14 -75 -12 -79 3 -7 20 -29 14 -43 -13 -22 -41 -43 -32 -35 15 7 43 1 48 -32
25 -20 -14 -23 -14 -33 6 -7 11 -10 30 -7 40 4 14 0 19 -14 19 -10 0 -19 7
-19 15 0 25 105 21 127 -5 12 -14 20 -16 29 -9 8 7 14 7 19 -1 9 -15 18 -13
43 10 27 26 28 43 3 35 -14 -4 -23 0 -31 15 -12 22 -49 27 -80 10 -13 -7 -21
-7 -25 0 -3 5 -22 10 -41 10 -26 0 -34 4 -34 18 0 32 105 57 231 56 95 -1 110
-3 156 -29 61 -32 111 -79 125 -115 l10 -25 13 25 c19 38 28 87 16 95 -6 3
-11 1 -11 -4 0 -6 -4 -11 -10 -11 -5 0 -10 12 -10 28 0 35 -23 68 -61 87 -16
9 -52 36 -79 60 -54 48 -70 50 -70 9 0 -38 -22 -24 -35 22 -7 23 -13 33 -16
24 -16 -45 -135 115 -127 170 2 21 9 25 43 28 22 2 44 8 49 13 19 18 45 9 91
-31 26 -22 65 -50 87 -61 25 -13 51 -38 70 -70 17 -27 33 -47 36 -45 12 13
-62 119 -130 186 -47 47 -79 88 -83 106 -12 53 -16 61 -24 44 -3 -9 -14 -27
-23 -40 -14 -19 -20 -22 -30 -12 -7 7 -22 12 -34 12 -13 0 -30 13 -45 34 -13
19 -42 43 -65 54 l-42 21 -36 -27 c-19 -15 -35 -33 -36 -39 0 -7 -4 -13 -9
-13 -5 0 -16 -3 -25 -6 -23 -9 -21 27 4 76 15 30 26 40 45 40 32 0 59 49 50
90 -3 15 -2 31 4 34 5 4 19 32 31 62 19 52 19 59 5 80 -10 16 -15 48 -15 103
0 72 3 85 31 130 29 46 31 55 24 103 -4 29 -7 60 -7 68 1 32 21 166 27 183 8
19 55 23 86 7z m-1596 -10 c-3 -5 -10 -10 -16 -10 -5 0 -9 5 -9 10 0 6 7 10
16 10 8 0 12 -4 9 -10z m1749 -47 c36 -17 101 -96 92 -112 -3 -4 -20 -11 -37
-15 -17 -3 -53 -17 -81 -31 -61 -31 -72 -31 -90 -3 -13 19 -12 29 6 87 12 36
25 72 29 79 11 17 40 15 81 -5z m-1318 -57 c1 -1 -2 -44 -6 -96 -6 -88 -39
-236 -59 -269 -13 -21 -36 -7 -71 40 -46 64 -42 97 21 150 l51 43 -7 59 c-7
69 4 90 44 80 14 -3 26 -6 27 -7z m711 -236 c61 -28 103 -61 103 -81 0 -13
-47 -4 -89 17 -40 20 -115 28 -149 16 -23 -8 -43 -7 -81 5 -75 21 -67 52 19
71 62 14 124 5 197 -28z m811 -21 c24 -12 40 -24 37 -28 -10 -9 -195 -28 -195
-19 0 4 7 8 15 8 8 0 15 4 15 9 0 5 3 16 6 25 5 14 2 14 -32 2 -22 -8 -52 -21
-69 -30 -37 -20 -45 -20 -45 -2 0 20 14 27 95 47 79 20 111 18 173 -12z m-908
-114 c0 -8 -7 -15 -15 -15 -8 0 -15 7 -15 15 0 8 7 15 15 15 8 0 15 -7 15 -15z
m830 -5 c-19 -13 -30 -13 -30 0 0 6 10 10 23 10 18 0 19 -2 7 -10z m-722 -24
c8 -42 -89 -85 -161 -72 -36 7 -52 26 -22 26 8 0 15 -4 15 -10 0 -5 18 -10 40
-10 22 0 40 5 40 10 0 6 6 10 14 10 8 0 20 16 27 35 14 38 41 44 47 11z m622
-21 c18 -22 7 -28 -23 -12 -15 8 -24 17 -20 20 11 12 30 8 43 -8z m132 -22 c2
-5 18 -15 37 -24 l34 -15 -46 -27 c-52 -31 -115 -48 -103 -28 4 7 13 10 19 8
17 -6 47 11 47 28 0 10 -15 15 -47 17 l-48 3 45 22 c50 25 57 26 62 16z m-752
-31 c0 -4 -14 -13 -31 -21 -28 -12 -30 -16 -24 -53 6 -31 3 -44 -12 -60 -74
-82 -155 -107 -205 -63 -16 13 -28 27 -28 31 0 4 -9 17 -20 29 -12 12 -22 35
-23 51 -2 27 1 29 39 32 28 2 47 -2 57 -12 9 -9 22 -16 30 -16 8 0 22 -9 31
-19 21 -23 64 -33 88 -20 25 14 22 39 -4 40 -17 1 -19 2 -5 6 9 2 17 9 17 14
0 5 -8 9 -17 9 -10 0 7 13 37 29 62 31 70 34 70 23z m-130 -42 c0 -5 -5 -10
-11 -10 -5 0 -7 5 -4 10 3 6 8 10 11 10 2 0 4 -4 4 -10z m977 -21 c-7 -27
-100 -179 -109 -179 -18 0 -67 58 -73 86 -7 34 -16 27 115 88 67 31 74 32 67
5z m42 -201 c-1 -68 -30 -156 -46 -137 -47 60 -84 124 -81 141 3 23 52 46 101
47 26 1 27 -1 26 -51z m-809 -58 c0 -5 -27 -35 -61 -67 -34 -32 -75 -82 -91
-111 -16 -28 -34 -49 -39 -46 -12 7 -11 56 2 91 12 32 94 121 124 133 28 12
65 12 65 0z m846 -163 c2 -65 -10 -73 -32 -21 -18 44 -11 87 14 82 13 -3 17
-15 18 -61z m-619 -107 c15 -17 42 -90 43 -112 0 -17 -31 -6 -63 22 -19 17
-41 30 -50 30 -29 0 -26 29 4 55 37 30 44 31 66 5z m-1147 -482 c11 -40 24
-82 27 -93 3 -11 25 -38 49 -61 49 -48 64 -91 64 -182 0 -55 -6 -76 -41 -147
-48 -98 -132 -211 -178 -242 -42 -29 -53 -22 -128 79 -49 67 -63 80 -98 88
-97 24 -140 67 -195 200 -49 116 -66 126 -100 60 -26 -51 -40 -51 -40 1 0 68
20 127 53 155 53 44 66 33 119 -98 64 -163 105 -220 203 -286 43 -30 81 -49
83 -43 2 6 -9 21 -23 34 -45 38 -74 135 -75 244 0 67 2 74 35 115 19 24 60 81
91 128 74 111 83 120 110 120 19 0 25 -10 44 -72z m2370 -56 c0 -5 -22 -46
-50 -92 -27 -46 -52 -96 -55 -112 -10 -42 -23 -43 -42 -4 -21 44 -15 57 69
150 55 61 78 78 78 58z m-3162 -90 c42 -39 48 -94 28 -235 -19 -131 -20 -182
-5 -225 9 -26 6 -39 -24 -99 -30 -58 -40 -70 -73 -82 -50 -18 -110 -60 -125
-89 -10 -18 -10 -29 5 -59 12 -25 14 -39 7 -46 -8 -8 -15 -7 -23 1 -7 7 -20
12 -29 12 -21 0 -49 42 -56 84 -5 31 -3 33 75 79 96 55 128 92 166 189 40 102
44 191 17 347 -28 159 -22 178 37 123z m2490 -479 c-9 -59 -59 -156 -89 -170
-35 -17 -48 -34 -76 -99 -13 -30 -34 -79 -46 -109 -28 -65 -56 -100 -70 -86
-13 13 28 112 87 216 26 44 64 118 87 165 46 97 64 120 92 120 17 0 19 -5 15
-37z m-1146 -40 c96 -77 212 -154 313 -207 l70 -37 -90 4 c-139 6 -247 54
-334 146 -38 40 -71 105 -66 130 2 9 4 19 4 24 2 16 23 4 103 -60z m-917 -24
c22 -6 56 -28 77 -49 70 -70 43 -126 -70 -145 -91 -15 -303 62 -310 113 -2 12
-2 22 1 22 2 0 37 12 78 26 122 44 163 50 224 33z m693 -166 c66 -112 102
-191 112 -244 5 -27 21 -64 34 -82 33 -44 82 -185 69 -198 -7 -7 -22 4 -48 35
-20 25 -56 56 -79 70 -51 30 -85 96 -115 227 -25 104 -44 246 -36 259 10 16
20 5 63 -67z m-1042 38 c22 -37 75 -67 150 -84 68 -16 118 -45 187 -110 45
-42 48 -48 42 -79 -4 -18 -11 -37 -15 -41 -14 -16 -85 -27 -172 -27 -68 0 -88
-3 -88 -14 0 -7 7 -19 14 -26 28 -22 78 -110 72 -125 -3 -8 -17 -20 -31 -27
-18 -8 -25 -19 -25 -40 0 -16 -6 -31 -14 -34 -16 -6 -96 9 -416 76 -107 22
-199 46 -205 51 -15 15 131 149 162 149 12 0 45 -12 72 -27 42 -24 52 -26 74
-16 38 18 63 59 47 78 -19 23 -6 28 46 17 76 -16 96 4 48 49 -36 33 -74 116
-74 161 0 33 6 42 42 68 51 37 62 37 84 1z m2386 -26 c13 -13 -56 -244 -87
-291 -28 -43 -40 -24 -39 62 0 88 20 139 77 200 32 34 39 38 49 29z m1405 -47
c59 -33 93 -63 152 -131 42 -49 76 -94 76 -100 0 -7 -33 -19 -75 -27 -177 -37
-244 -81 -252 -166 -5 -55 -64 -188 -293 -664 -221 -458 -251 -522 -265 -557
-12 -33 -40 -46 -40 -19 0 28 71 352 120 545 27 108 93 347 146 531 85 296 96
344 95 408 -1 40 4 82 9 92 12 23 97 88 155 119 51 28 76 23 172 -31z m-4160
-114 c3 -9 -3 -21 -16 -30 -15 -11 -21 -26 -21 -55 0 -21 -3 -39 -7 -40 -5 0
-24 -2 -43 -3 -19 -2 -66 -15 -105 -30 -73 -27 -100 -23 -64 10 26 24 231 162
242 163 4 1 10 -6 14 -15z m2286 -144 c17 -20 28 -48 32 -84 13 -104 -33 -446
-60 -446 -29 0 -86 351 -72 450 5 41 45 110 64 110 6 0 23 -13 36 -30z m-477
-18 c6 -4 32 -40 57 -80 40 -62 49 -85 58 -150 15 -111 59 -201 75 -157 4 9 1
86 -6 171 -12 139 -12 156 2 171 24 23 61 9 92 -35 24 -35 26 -47 26 -134 0
-53 7 -133 16 -179 15 -80 14 -191 -2 -234 -6 -15 -8 -14 -25 1 -11 9 -19 22
-19 28 0 6 -8 20 -16 31 -15 19 -16 17 -9 -30 4 -27 29 -149 55 -269 l49 -219
-14 -71 c-20 -99 -29 -129 -42 -133 -6 -2 -14 6 -18 19 -7 22 -101 235 -167
378 -82 176 -114 310 -105 431 4 66 1 85 -31 179 -43 126 -50 234 -18 269 21
23 26 24 42 13z m764 -11 c23 -43 18 -59 -117 -401 -36 -91 -87 -226 -113
-300 -65 -184 -69 -192 -81 -188 -6 2 -11 6 -11 8 -5 31 97 492 134 610 30 95
83 210 120 263 23 32 53 35 68 8z m110 -153 c0 -5 28 -7 62 -6 l62 3 9 -52 c6
-39 3 -86 -13 -185 -42 -261 -88 -398 -243 -719 -129 -265 -169 -359 -202
-474 -14 -49 -31 -93 -38 -97 -20 -13 -216 -12 -230 1 -10 10 16 176 53 339
27 116 35 139 61 163 16 15 29 32 29 37 0 6 26 44 59 84 76 95 82 107 141 296
27 87 74 219 103 293 30 74 64 175 76 224 12 50 27 101 33 115 9 24 10 24 24
5 8 -10 14 -23 14 -27z m-1382 -32 c21 -13 45 -35 54 -48 8 -13 57 -68 108
-123 51 -55 111 -125 133 -155 23 -30 76 -92 119 -136 43 -45 78 -86 78 -92 0
-6 33 -85 74 -174 158 -348 187 -421 176 -432 -8 -8 -33 13 -92 74 l-82 85 33
-60 c18 -33 50 -80 70 -105 53 -64 52 -62 31 -124 -19 -54 -20 -60 -5 -117 24
-92 24 -92 -74 -94 -91 -1 -111 8 -111 50 0 13 -4 27 -10 30 -5 3 -10 13 -10
21 0 30 -40 101 -110 194 -151 202 -258 473 -384 975 -48 192 -57 235 -51 246
8 13 11 12 53 -15z m-577 -193 c8 -10 48 -54 89 -98 40 -44 107 -125 148 -180
l76 -99 37 -157 c65 -278 103 -459 96 -465 -27 -27 -97 129 -177 396 -42 140
-84 239 -138 330 -42 69 -118 170 -148 196 -29 24 -37 94 -10 94 6 0 18 -8 27
-17z m2013 -621 c14 -23 -107 -628 -132 -662 -17 -23 -27 -25 -101 -28 -67 -2
-82 0 -87 13 -4 10 37 107 104 243 60 125 129 275 152 335 40 100 52 118 64
99z"/>
</g>
</svg>
