<?xml version="1.0" standalone="no"?>
<!DOCTYPE svg PUBLIC "-//W3C//DTD SVG 20010904//EN"
 "http://www.w3.org/TR/2001/REC-SVG-20010904/DTD/svg10.dtd">
<svg version="1.0" xmlns="http://www.w3.org/2000/svg"
 width="200.000000pt" height="200.000000pt" viewBox="0 0 200.000000 200.000000"
 preserveAspectRatio="xMidYMid meet">

<g transform="translate(0.000000,200.000000) scale(0.100000,-0.100000)"
fill="#000000" stroke="none">
<path d="M911 1969 c-55 -11 -131 -47 -138 -67 -4 -8 1 -19 10 -24 10 -5 17
-19 17 -31 0 -28 18 -47 42 -47 15 0 18 -9 18 -54 0 -51 -2 -54 -31 -66 -42
-18 -122 -98 -147 -146 -27 -53 -42 -131 -42 -214 l0 -70 -60 0 -60 0 0 -115
c0 -104 -2 -115 -20 -125 -25 -14 -28 -75 -4 -88 32 -18 44 -81 44 -230 0
-136 -1 -144 -20 -149 -18 -5 -20 -14 -20 -115 0 -87 -6 -135 -30 -235 -17
-70 -28 -135 -24 -145 5 -16 18 -18 148 -18 186 0 176 -11 176 188 l0 152 -30
0 c-23 0 -30 4 -30 20 0 18 4 17 63 -10 61 -30 65 -30 230 -30 166 0 168 0
227 30 70 36 70 36 70 10 0 -16 -7 -20 -35 -20 l-35 0 0 -149 c0 -202 -9 -193
180 -189 l145 3 3 26 c2 14 -9 74 -23 133 -19 84 -25 134 -25 227 0 114 -1
119 -21 119 -21 0 -21 3 -17 181 3 175 4 182 26 197 30 20 32 87 2 95 -19 5
-20 14 -20 121 l0 116 -59 0 -59 0 -4 108 c-5 127 -23 176 -92 250 -70 75
-146 105 -263 106 -86 1 -93 2 -93 21 0 11 -3 29 -6 41 -5 17 0 22 24 27 31 6
42 33 42 103 0 18 5 36 10 39 17 10 11 35 -7 34 -10 -1 -38 -5 -62 -10z m39
-53 c0 -13 -3 -38 -6 -55 -5 -25 -11 -31 -33 -31 -22 1 -24 2 -8 11 23 13 22
56 -2 69 -25 13 -27 13 -45 -6 -20 -20 -20 -38 0 -58 14 -15 13 -16 -10 -16
-21 0 -26 5 -27 25 -1 14 -2 30 -3 37 -1 14 76 47 112 47 17 1 22 -5 22 -23z
m-63 -193 c-2 -16 -4 -3 -4 27 0 30 2 43 4 28 2 -16 2 -40 0 -55z m123 -58 c0
-25 0 -25 98 -25 l98 0 41 -42 c23 -24 51 -63 62 -88 l20 -45 -44 -3 -45 -3 0
-50 0 -49 50 0 c28 0 50 -4 50 -10 0 -6 -118 -10 -334 -10 -213 0 -337 4 -341
10 -4 6 38 10 119 10 l126 0 0 50 0 50 -115 0 c-85 0 -115 3 -115 13 0 23 59
114 90 141 29 24 39 26 126 26 94 0 94 0 94 25 0 14 5 25 10 25 6 0 10 -11 10
-25z m330 -395 c0 -14 -667 -14 -675 0 -4 7 110 10 334 10 221 0 341 -4 341
-10z m-700 -215 l0 -175 -45 0 -45 0 0 175 0 175 45 0 45 0 0 -175z m820 0 l0
-175 -50 0 -50 0 0 175 0 175 50 0 50 0 0 -175z m-696 150 c8 -23 474 -23 482
0 4 8 17 15 30 15 21 0 24 -5 24 -39 0 -37 -2 -40 -32 -43 l-33 -3 -3 -117 -3
-118 -229 0 -230 0 0 120 0 120 -30 0 c-28 0 -30 2 -30 40 0 36 3 40 24 40 13
0 26 -7 30 -15z m-14 -205 l0 -120 250 0 249 0 3 118 c3 113 4 117 26 120 l22
3 0 -310 0 -311 -295 0 -295 0 0 310 c0 303 0 310 20 310 19 0 20 -7 20 -120z
m-110 -310 l0 -130 -25 0 -25 0 0 130 0 130 25 0 25 0 0 -130z m780 -1 l0
-130 -27 3 -28 3 -3 128 -3 127 31 0 30 0 0 -131z m-778 -251 l3 -83 53 -3
c44 -3 52 -6 52 -23 0 -18 -8 -19 -115 -19 l-115 0 0 105 0 105 60 0 59 0 3
-82z m848 -23 l0 -105 -120 0 c-113 0 -120 1 -120 20 0 18 7 20 55 20 l55 0 0
85 0 85 65 0 65 0 0 -105z m-260 35 c-54 -29 -57 -29 -225 -29 -166 0 -171 1
-230 29 l-60 28 285 1 285 0 -55 -29z m-480 -260 l0 -100 -141 0 -141 0 5 23
c3 12 13 57 23 100 l18 77 118 0 118 0 0 -100z m750 58 c6 -24 16 -61 21 -83
6 -22 12 -48 15 -57 5 -17 -6 -18 -140 -18 l-146 0 0 100 0 100 120 0 119 0
11 -42z"/>
<path d="M965 1598 c-9 -28 -23 -123 -18 -130 5 -9 217 -11 225 -3 5 5 -4 66
-17 123 -5 21 -10 22 -96 22 -63 0 -91 -4 -94 -12z m123 -24 c24 -17 30 -62
10 -82 -37 -37 -113 12 -89 57 10 18 37 40 51 41 3 0 16 -7 28 -16z"/>
<path d="M1166 1427 c-28 -20 -18 -61 16 -65 22 -3 30 2 39 22 22 47 -13 74
-55 43z m44 -17 c0 -5 -4 -10 -10 -10 -5 0 -10 5 -10 10 0 6 5 10 10 10 6 0
10 -4 10 -10z"/>
<path d="M930 1395 c0 -32 2 -35 30 -35 28 0 30 3 30 35 0 32 -2 35 -30 35
-28 0 -30 -3 -30 -35z"/>
<path d="M1017 1423 c-4 -3 -7 -19 -7 -35 0 -28 1 -28 60 -28 l60 0 0 35 0 35
-53 0 c-30 0 -57 -3 -60 -7z"/>
<path d="M801 1137 c-15 -15 -14 -42 2 -54 15 -13 339 -16 382 -5 44 12 46 47
3 61 -43 14 -373 12 -387 -2z"/>
<path d="M818 1008 c-39 -14 -37 -44 5 -57 19 -7 102 -10 206 -8 153 2 175 4
185 20 8 12 8 22 0 35 -10 15 -32 17 -190 19 -100 1 -191 -3 -206 -9z"/>
<path d="M762 838 c-6 -6 -12 -31 -12 -55 0 -50 17 -63 82 -63 65 0 80 15 76
75 l-3 50 -65 3 c-42 2 -70 -2 -78 -10z m128 -48 l0 -40 -60 0 -60 0 0 40 0
40 60 0 60 0 0 -40z"/>
<path d="M940 695 l0 -155 65 0 65 0 0 155 0 155 -65 0 -65 0 0 -155z"/>
<path d="M1115 837 c-3 -7 -4 -76 -3 -152 l3 -140 65 0 65 0 0 150 0 150 -63
3 c-45 2 -64 -1 -67 -11z m115 -142 l0 -135 -50 0 -50 0 0 135 0 135 50 0 50
0 0 -135z"/>
<path d="M770 684 c0 -12 9 -14 42 -12 59 4 63 28 4 28 -35 0 -46 -4 -46 -16z"/>
<path d="M770 646 c0 -12 11 -16 46 -16 59 0 55 24 -4 28 -33 2 -42 0 -42 -12z"/>
<path d="M770 594 c0 -12 9 -14 42 -12 59 4 63 28 4 28 -35 0 -46 -4 -46 -16z"/>
<path d="M770 556 c0 -12 11 -16 46 -16 59 0 55 24 -4 28 -33 2 -42 0 -42 -12z"/>
</g>
</svg>
